Coordinates
version=1
nRows=14
nColumns=33
inDegrees=yes

Units are S.I. units (second, meters, Newtons, ...)
Angles are in degrees.

endheader
time	ground_thorax_rot_x	ground_thorax_rot_y	ground_thorax_rot_z	ground_thorax_tx	ground_thorax_ty	ground_thorax_tz	clav_prot_r	clav_elev_r	scapula_abduction_r	scapula_elevation_r	scapula_upward_rot_r	scapula_winging_r	shoulder_elv_r	plane_of_elev_r	axial_rot_r	elbow_flexion_r	pro_sup_r	wrist_flex_r	wrist_dev_r	clav_prot_l	clav_elev_l	scapula_abduction_l	scapula_elevation_l	scapula_upward_rot_l	scapula_winging_l	shoulder_elv_l	plane_of_elev_l	axial_rot_l	elbow_flexion_l	pro_sup_l	wrist_flex_l	wrist_dev_l	
7.3600	36.245391	17.248486	21.643802	-263.774363	830.149478	5.043169	13.985145	45.000000	45.021074	45.000000	45.028135	2134.683098	-3733.586445	-90.000000	-76.000547	2520.640183	-125.016113	21.662968	14.167043	2.877129	-45.000000	-38.526259	45.000000	-5.854288	-3129.666815	-269.367278	14.251410	180.000000	725.525038	211.450731	7.761426	-21.046190	
7.3700	36.209301	17.287978	21.729360	-263.575033	829.922078	5.147093	14.050190	45.000000	45.015851	45.000000	45.020676	2134.678674	-3733.524184	-90.000000	-76.050657	2520.671120	-125.055522	21.638828	14.171819	2.858004	-45.000000	-38.544270	45.000000	-5.894704	-3129.626452	-269.412276	14.256588	180.000000	725.528565	211.451476	7.758495	-20.987618	
7.3800	36.149292	17.383307	21.873817	-263.363908	829.696264	5.251725	14.109900	45.000000	44.992351	45.000000	44.987961	2134.681690	-3733.455350	-90.000000	-76.107421	2520.690628	-125.091543	21.559427	14.140331	2.784925	-45.000000	-38.594492	45.000000	-5.947270	-3129.566558	-269.437158	14.260616	180.000000	725.530711	211.458357	7.758325	-20.854544	
7.3900	36.098797	17.436422	21.970944	-263.126588	829.475397	5.359058	14.139263	45.000000	44.989739	45.000000	44.983383	2134.677926	-3733.415523	-90.000000	-76.134865	2520.716848	-125.125371	21.525946	14.145926	2.771950	-45.000000	-38.622071	45.000000	-6.001056	-3129.533043	-269.468411	14.261240	180.000000	725.526895	211.459829	7.750329	-20.805191	
7.4000	36.045156	17.487789	22.061974	-262.862870	829.259247	5.467820	14.151193	45.000000	44.991449	45.000000	44.982828	2134.674959	-3733.388090	-90.000000	-76.149822	2520.741671	-125.155796	21.517883	14.171497	2.782375	-45.000000	-38.640287	45.000000	-6.058732	-3129.509234	-269.496455	14.264287	180.000000	725.522476	211.459911	7.739579	-20.787005	
7.4100	35.988635	17.539791	22.141785	-262.570597	829.048506	5.576960	14.149461	45.000000	44.996113	45.000000	44.986903	2134.667972	-3733.368733	-90.000000	-76.156610	2520.761050	-125.180836	21.506030	14.198370	2.804651	-45.000000	-38.664841	45.000000	-6.121807	-3129.495268	-269.526489	14.263541	180.000000	725.505407	211.457824	7.726553	-20.785056	
7.4200	35.928521	17.597030	22.217068	-262.251762	828.844006	5.684363	14.141220	45.000000	45.000000	45.000000	44.990483	2134.658789	-3733.350907	-90.000000	-76.161730	2520.779739	-125.200169	21.515923	14.241060	2.845244	-45.000000	-38.682768	45.000000	-6.188188	-3129.487485	-269.556824	14.271982	180.000000	725.484452	211.453537	7.714487	-20.799776	
7.4300	35.864044	17.669362	22.291764	-261.909709	828.647140	5.787558	14.132309	45.000000	45.000000	45.000000	44.991304	2134.645675	-3733.327250	-90.000000	-76.172444	2520.791512	-125.211920	21.507418	14.272927	2.884758	-45.000000	-38.710399	45.000000	-6.260586	-3129.481172	-269.590303	14.284066	180.000000	725.449698	211.447030	7.704851	-20.803597	
7.4400	35.798534	17.747026	22.365377	-261.547570	828.460625	5.884073	14.122526	45.000000	45.000000	45.000000	44.992406	2134.631569	-3733.300619	-90.000000	-76.185747	2520.806250	-125.216070	21.522379	14.321078	2.943106	-45.000000	-38.726166	45.000000	-6.335536	-3129.476444	-269.622173	14.308724	180.000000	725.412250	211.437141	7.698447	-20.819940	
7.4500	35.734560	17.833881	22.437737	-261.167410	828.287705	5.971731	14.110713	45.000000	45.000000	45.000000	44.995410	2134.618821	-3733.270455	-90.000000	-76.202111	2520.817588	-125.210740	21.521775	14.361112	3.001312	-45.000000	-38.751537	45.000000	-6.415211	-3129.473224	-269.655608	14.329821	180.000000	725.364786	211.424561	7.695010	-20.831346	
7.4600	35.671331	17.931214	22.516289	-260.770608	828.132076	6.048655	14.095632	45.000000	45.000000	45.000000	44.997914	2134.612611	-3733.238566	-90.000000	-76.219740	2520.830795	-125.195776	21.539484	14.414033	3.069985	-45.000000	-38.771976	45.000000	-6.495267	-3129.469020	-269.683174	14.356147	180.000000	725.321320	211.410966	7.696245	-20.848322	
7.4700	35.610205	18.041725	22.597849	-260.357025	827.996986	6.113663	14.078403	45.000000	45.000000	45.000000	45.000000	2134.613721	-3733.204028	-90.000000	-76.239672	2520.839445	-125.169207	21.547319	14.462285	3.135522	-45.000000	-38.802257	45.000000	-6.575137	-3129.465659	-269.707232	14.376089	180.000000	725.275772	211.397709	7.701571	-20.861777	
7.4800	35.550360	18.164344	22.686358	-259.925412	827.885053	6.166285	14.059612	45.000000	45.000000	45.000000	45.000000	2134.623075	-3733.167976	-90.000000	-76.260919	2520.847718	-125.130045	21.567526	14.519470	3.204178	-45.000000	-38.834086	45.000000	-6.651936	-3129.461139	-269.723651	14.396050	180.000000	725.233432	211.386528	7.712121	-20.877835	
7.4900	35.494889	18.296594	22.774236	-259.472864	827.797736	6.206892	14.039967	45.000000	45.000000	45.000000	45.000000	2134.640352	-3733.130370	-90.000000	-76.283618	2520.852986	-125.076144	21.579343	14.573181	3.267620	-45.000000	-38.878794	45.000000	-6.725645	-3129.459813	-269.740006	14.407066	180.000000	725.188798	211.378500	7.727639	-20.891960	
